# AST/ASF file generated using VICON BodyLanguage
# -----------------------------------------------
:version 1.10
:name VICON
:units
  mass 1.0
  length 0.45
  angle deg
:documentation
   .ast/.asf automatically generated from VICON data using
   VICON BodyBuilder and BodyLanguage model FoxedUp or BRILLIANT.MOD
:root
   order TX TY TZ RX RY RZ
   axis XYZ
   position 0 0 0  
   orientation 0 0 0 
:bonedata
  begin
     id 1 
     name lhipjoint
     direction 0.693937 -0.600361 0.397515 
     length 2.37164 
     axis 0 0 0  XYZ
  end
  begin
     id 2 
     name lfemur
     direction 0.34202 -0.939693 0  
     length 6.18497  
     axis 0 0 20  XYZ
    dof rx ry rz
    limits (-160.0 20.0)
           (-70.0 70.0)
           (-60.0 70.0)
  end
  begin
     id 3 
     name ltibia
     direction 0.34202 -0.939693 0   
     length 6.91601   
     axis 0 0 20   XYZ
    dof rx
    limits (-10.0 170.0)
  end
  begin
     id 4 
     name lfoot
     direction 0.0978718 -0.2689 0.958182   
     length 1.81453   
     axis -90 7.62852e-016 20   XYZ
    dof rx rz
    limits (-45.0 90.0)
           (-70.0 20.0)
  end
  begin
     id 5 
     name ltoes
     direction 1.53569e-011 -4.21951e-011 1   
     length 0.912052   
     axis -90 7.62852e-016 20   XYZ
    dof rx
    limits (-90.0 20.0)
  end
  begin
     id 6 
     name rhipjoint
     direction -0.643996 -0.637876 0.422354   
     length 2.23216  
     axis 0 0 0  XYZ 
  end
  begin
     id 7 
     name rfemur
     direction -0.34202 -0.939693 0   
     length 6.15404   
     axis 0 0 -20   XYZ
    dof rx ry rz
    limits (-160.0 20.0)
           (-70.0 70.0)
           (-70.0 60.0)
  end
  begin
     id 8 
     name rtibia
     direction -0.34202 -0.939693 0   
     length 6.86744   
     axis 0 0 -20   XYZ
    dof rx
    limits (-10.0 170.0)
 end
 begin
     id 9 
     name rfoot
     direction -0.118701 -0.326127 0.937844   
     length 1.9243  
     axis -90 -7.62852e-016 -20   XYZ
    dof rx rz
    limits (-45.0 90.0)
           (-20.0 70.0)
  end
  begin
     id 10 
     name rtoes
     direction -1.5356e-011 -4.2181e-011 1   
     length 0.958865   
     axis -90 -7.62852e-016 -20   XYZ
    dof rx
    limits (-90.0 20.0)
  end
  begin
     id 11 
     name lowerback
     direction 0.0310826 0.968686 -0.246334   
     length 2.00021   
     axis 0 0 0   XYZ
    dof rx ry rz
    limits (-20.0 45.0)
           (-30.0 30.0)
           (-30.0 30.0)
  end
  begin
     id 12 
     name upperback
     direction -0.0152834 0.999474 -0.0286152   
     length 2.03728   
     axis 0 0 0   XYZ
    dof rx ry rz
    limits (-20.0 45.0)
           (-30.0 30.0)
           (-30.0 30.0)
  end
  begin
     id 13 
     name thorax
     direction -0.0323701 0.996236 0.0804149   
     length 2.16   
     axis 0 0 0   XYZ
    dof rx ry rz
    limits (-20.0 45.0)
           (-30.0 30.0)
           (-30.0 30.0)
  end
  begin
     id 14 
     name lowerneck
     direction 0.0307935 0.982251 0.185027   
     length 1.43558   
     axis 0 0 0   XYZ
    dof rx ry rz
    limits (-20.0 45.0)
           (-30.0 30.0)
           (-30.0 30.0)
  end
  begin
     id 15 
     name upperneck
     direction -0.0927153 0.994775 0.0427454   
     length 1.44603   
     axis 0 0 0   XYZ
    dof rx ry rz
    limits (-20.0 45.0)
           (-30.0 30.0)
           (-30.0 30.0)
  end
  begin
     id 16
     name head
     direction -0.0341265 0.999406 -0.00472033  
     length 1.45931  
     axis 0 0 0   XYZ
    dof rx ry rz
    limits (-20.0 45.0)
           (-30.0 30.0)
           (-30.0 30.0)
  end
  begin
     id 17 
     name lclavicle
     direction 0.820755 0.555306 -0.134151  
     length 2.66075  
     axis 0 0 0   XYZ
    dof ry rz
    limits (-20.0 10.0)
           (0.0 20.0)
  end
  begin
     id 18 
     name lhumerus
     direction 1 -4.48971e-011 5.24853e-027   
     length 5.0546   
     axis -180 -30 -90   XYZ
    dof rx ry rz
    limits (-60.0 90.0)
           (-90.0 90.0)
           (-90.0 90.0)
  end
  begin
     id 19
     name lradius
     direction 1 -4.48971e-011 2.76575e-028   
     length 3.39013   
     axis -180 -30 -90   XYZ
    dof rx
    limits (-10.0 170.0)
  end
  begin
     id 20
     name lwrist
     direction 1 -4.48939e-011 -2.27826e-027   
     length 1.69507   
     axis 2.17013e-015 90 90   XYZ
    dof ry
    limits (-180.0 0.0)
 end
  begin
     id 21 
     name lhand
     direction 1 -4.49009e-011 -4.55652e-027   
     length 0.572425   
     axis 2.90745e-015 90 90   XYZ
    dof rx rz
    limits (-90.0 90.0)
           (-45.0 45.0)
  end
  begin
     id 22 
     name lfingers
     direction 1 -4.48955e-011 -9.11303e-027   
     length 0.461504   
     axis 5.81489e-015 90 90   XYZ
    dof rx
    limits (0.0 90.0)
  end
  begin
     id 23
     name lthumb
     direction 0.707107 -6.34929e-011 0.707107   
     length 0.66263   
     axis -90 45 2.85299e-015   XYZ
    dof rx rz
    limits (-45.0 45.0)
           (-45.0 45.0)
  end
  begin
     id 24 
     name rclavicle
     direction -0.754477 0.632921 -0.173712   
     length 2.73081  
     axis 0 0 0   XYZ 
    dof ry rz
    limits (-10.0 20.0)
           (-20.0 0.0)
  end
  begin
     id 25 
     name rhumerus
     direction -1 -4.48969e-011 5.1496e-027  
     length 5.0701   
     axis -180 30 90   XYZ
    dof rx ry rz
    limits (-90.0 60.0)
           (-90.0 90.0)
           (-90.0 90.0)
  end
  begin
     id 26 
     name rradius
     direction -1 -4.48967e-011 -7.15624e-028   
     length 3.14957   
     axis -180 30 90   XYZ
    dof rx
    limits (-10.0 170.0)
  end
  begin
     id 27 
     name rwrist
     direction -1 -4.48938e-011 -2.27826e-027   
     length 1.57479   
     axis 2.17013e-015 -90 -90   XYZ
    dof ry
    limits (-180.0 0.0)
  end
  begin
     id 28
     name rhand
     direction -1 -4.49008e-011 -4.55652e-027   
     length 0.718191   
     axis 2.90745e-015 -90 -90   XYZ
    dof rx rz
    limits (-90.0 90.0)
           (-45.0 45.0)
  end
  begin
     id 29
     name rfingers
     direction -1 -4.48953e-011 -9.11303e-027   
     length 0.579024   
     axis 5.81489e-015 -90 -90   XYZ
    dof rx
    limits (0.0 90.0)
  end
  begin
     id 30
     name rthumb
     direction -0.707107 -6.34937e-011 0.707107   
     length 0.831366   
     axis -90 -45 -2.85299e-015   XYZ
    dof rx rz
    limits (-45.0 45.0)
           (-45.0 45.0)
  end
:hierarchy
  begin
    root lhipjoint rhipjoint lowerback
    lhipjoint lfemur
    lfemur ltibia
    ltibia lfoot
    lfoot ltoes
    rhipjoint rfemur
    rfemur rtibia
    rtibia rfoot
    rfoot rtoes
    lowerback upperback
    upperback thorax
    thorax lowerneck lclavicle rclavicle
    lowerneck upperneck
    upperneck head
    lclavicle lhumerus
    lhumerus lradius
    lradius lwrist
    lwrist lhand lthumb
    lhand lfingers
    rclavicle rhumerus
    rhumerus rradius
    rradius rwrist
    rwrist rhand rthumb
    rhand rfingers
  end

#!OML:ASF H:\Male1\Project 1\Capture day 1\Session 1\Male1.ASF
:FULLY-SPECIFIED
:DEGREES
204
root -27.5322 14.4085 -5.61461 6.66924 14.8109 0.228998
lowerback 9.98036 2.92488 -2.54866
upperback 4.80573 3.63108 -3.08855
thorax -0.541872 1.82184 -2.13724
lowerneck -1.85585 11.2103 19.5596
upperneck 3.62871 15.6518 -20.6179
head 4.6526 7.65235 -8.58249
rclavicle 1.59028e-015 -4.85035e-014
rhumerus -55.173 10.2455 -95.221
rradius 87.7821
rwrist -28.0853
rhand -29.0432 7.66295
rfingers 7.12502
rthumb -2.39341 -22.3034
lclavicle 1.59028e-015 -4.85035e-014
lhumerus -44.2754 -6.81521 86.404
lradius 75.1905
lwrist 18.1565
lhand -25.1079 12.5272
lfingers 7.12502
lthumb 1.40731 42.5023
rfemur -35.6998 -3.36929 17.2514
rtibia 76.459
rfoot -14.5764 -20.9381
rtoes -31.1377
lfemur -3.29439 -15.556 -33.123
ltibia 32.0493
lfoot -27.3269 5.0352
ltoes 7.36985
205
root -27.4792 14.4557 -5.16884 6.21647 16.7843 0.223516
lowerback 10.3869 2.78695 -2.7642
upperback 5.00697 3.42458 -2.97126
thorax -0.577064 1.71634 -1.89027
lowerneck -1.62069 11.0862 19.439
upperneck 3.28499 15.4822 -20.6692
head 4.47115 7.58496 -8.62008
rclavicle 2.74323e-014 -1.59028e-014
rhumerus -58.4111 8.91643 -95.0569
rradius 88.0085
rwrist -29.3601
rhand -30.9945 7.35589
rfingers 7.12502
rthumb -4.27781 -22.5809
lclavicle 2.74323e-014 -1.59028e-014
lhumerus -43.9193 -8.4732 86.829
lradius 82.4919
lwrist 17.1417
lhand -24.9226 11.4031
lfingers 7.12502
lthumb 1.58635 41.3769
rfemur -37.1558 -2.821 16.5247
rtibia 72.9078
rfoot -15.9902 -21.6529
rtoes -30.3935
lfemur 0.57011 -16.4113 -33.0864
ltibia 29.3576
lfoot -25.644 4.19218
ltoes 6.2881
206
root -27.4136 14.516 -4.70501 5.79801 18.8048 0.102954
lowerback 10.5808 2.61787 -2.81667
upperback 5.21567 3.20339 -2.83328
thorax -0.478752 1.60525 -1.69793
lowerneck -1.34946 10.9391 19.4712
upperneck 2.95934 15.3129 -21.026
head 4.33057 7.51751 -8.78659
rclavicle -5.32743e-014 1.74931e-014
rhumerus -61.5533 7.6418 -94.8799
rradius 88.2922
rwrist -31.0075
rhand -32.6759 7.10815
rfingers 7.12502
rthumb -5.90134 -22.7897
lclavicle -5.32743e-014 1.74931e-014
lhumerus -43.4851 -9.96915 87.2204
lradius 89.6093
lwrist 15.5851
lhand -24.5706 9.73916
lfingers 7.12502
lthumb 1.92629 39.7102
rfemur -37.8565 -2.14459 15.7568
rtibia 68.2552
rfoot -17.3015 -22.2181
rtoes -29.9337
lfemur 4.43481 -17.334 -32.9208
ltibia 26.5132
lfoot -23.3511 3.41296
ltoes 5.09501
207
root -27.3335 14.5821 -4.22256 5.39797 20.7681 -0.135552
lowerback 10.5012 2.44451 -2.71849
upperback 5.43753 3.0048 -2.68262
thorax -0.209824 1.50686 -1.56505
lowerneck -1.08972 10.8442 19.5889
upperneck 2.71547 15.234 -21.5101
head 4.25349 7.493 -8.99687
rclavicle 4.81059e-014 7.15625e-015
rhumerus -64.5262 6.41533 -94.6903
rradius 88.5842
rwrist -32.7975
rhand -33.7687 6.8759
rfingers 7.12502
rthumb -6.9563 -22.9898
lclavicle 4.81059e-014 7.15625e-015
lhumerus -42.97 -11.3169 87.6156
lradius 96.3288
lwrist 13.7474
lhand -24.129 7.81594
lfingers 7.12502
lthumb 2.35275 37.7827
rfemur -37.8426 -1.19226 14.9274
rtibia 62.8134
rfoot -18.5525 -22.5468
rtoes -29.8939
lfemur 8.14454 -18.2838 -32.6723
ltibia 23.846
lfoot -20.5643 2.80305
ltoes 3.87926
208
root -27.2396 14.6447 -3.72542 5.00665 22.6609 -0.474162
lowerback 10.1706 2.27051 -2.48727
upperback 5.666 2.82752 -2.53225
thorax 0.209118 1.42106 -1.49916
lowerneck -0.882111 10.7615 19.7409
upperneck 2.5774 15.1856 -22.0843
head 4.23394 7.47963 -9.23711
rclavicle -7.23576e-014 2.8625e-014
rhumerus -67.2166 5.22507 -94.4804
rradius 88.8228
rwrist -34.4601
rhand -34.3797 6.7132
rfingers 7.12502
rthumb -7.54603 -23.1322
lclavicle -7.23576e-014 2.8625e-014
lhumerus -42.4411 -12.5587 88.0325
lradius 102.531
lwrist 11.8942
lhand -23.7301 5.88358
lfingers 7.12502
lthumb 2.73802 35.8457
rfemur -37.2345 0.158651 13.9974
rtibia 56.984
rfoot -19.7579 -22.6721
rtoes -30.3171
lfemur 11.4111 -19.2272 -32.3685
ltibia 21.9007
lfoot -17.5079 2.35624
ltoes 3.00063
209
root -27.14 14.6935 -3.21847 4.53872 24.3077 -0.828472
lowerback 9.76942 2.17047 -2.32756
upperback 5.90692 2.74195 -2.39558
thorax 0.677926 1.37978 -1.41571
lowerneck -0.717751 10.6783 19.8344
upperneck 2.49451 15.1362 -22.6241
head 4.22966 7.46314 -9.45542
rclavicle -3.26007e-014 -8.74653e-015
rhumerus -69.5634 4.10522 -94.2475
rradius 89.0208
rwrist -35.7642
rhand -34.7291 6.64075
rfingers 7.12502
rthumb -7.88328 -23.1923
lclavicle -3.26007e-014 -8.74653e-015
lhumerus -42.0188 -13.7405 88.4593
lradius 108.187
lwrist 10.223
lhand -23.6039 4.26341
lfingers 7.12502
lthumb 2.85988 34.224
rfemur -36.1325 2.18681 12.9097
rtibia 51.2459
rfoot -20.8259 -22.7858
rtoes -31.0302
lfemur 13.9257 -19.8419 -32.06
ltibia 21.3936
lfoot -14.5175 1.99979
ltoes 2.74397
210
root -27.0366 14.7225 -2.71092 4.03548 25.8627 -1.25152
lowerback 9.34703 2.07894 -2.12966
upperback 6.12572 2.66708 -2.26429
thorax 1.13772 1.34526 -1.36159
lowerneck -0.538727 10.5483 19.7065
upperneck 2.31791 14.9988 -23.0067
head 4.14325 7.40595 -9.59737
rclavicle 2.74323e-014 -6.04305e-014
rhumerus -71.4711 3.13513 -94.001
rradius 89.1704
rwrist -36.6459
rhand -34.8952 6.56125
rfingers 7.12502
rthumb -8.0436 -23.2657
lclavicle 2.74323e-014 -6.04305e-014
lhumerus -41.7885 -14.8107 88.8818
lradius 113.185
lwrist 9.02231
lhand -23.789 2.8305
lfingers 7.12502
lthumb 2.68117 32.7934
rfemur -34.7489 4.71815 11.7918
rtibia 46.1018
rfoot -21.5671 -23.1
rtoes -31.7607
lfemur 15.2281 -20.1338 -31.5855
ltibia 22.9217
lfoot -11.848 1.64387
ltoes 3.01532
211
root -26.936 14.732 -2.21081 3.44231 27.3686 -1.81306
lowerback 9.05916 1.99248 -1.87234
upperback 6.30277 2.59259 -2.10576
thorax 1.48194 1.31312 -1.32032
lowerneck -0.353383 10.4941 19.4576
upperneck 2.1209 14.9425 -23.1482
head 4.03527 7.39045 -9.62466
rclavicle -6.75868e-014 2.62396e-014
rhumerus -72.8535 2.38248 -93.7416
rradius 89.2909
rwrist -37.1473
rhand -35.2954 6.47345
rfingers 7.12502
rthumb -8.42985 -23.3383
lclavicle -6.75868e-014 2.62396e-014
lhumerus -41.851 -15.7298 89.3389
lradius 117.425
lwrist 8.42118
lhand -24.2713 1.68942
lfingers 7.12502
lthumb 2.21538 31.6577
rfemur -33.1828 7.40367 10.947
rtibia 42.0206
rfoot -21.9096 -23.6168
rtoes -32.1962
lfemur 15.2034 -20.0291 -30.7788
ltibia 26.5615
lfoot -9.46377 1.25942
ltoes 4.0381
212
root -26.8375 14.7247 -1.72146 2.73972 28.853 -2.51423
lowerback 8.94168 1.90608 -1.5461
upperback 6.44578 2.51256 -1.90344
thorax 1.69812 1.28057 -1.28015
lowerneck -0.112038 10.5262 19.0819
upperneck 1.76006 14.9679 -23.0525
head 3.85631 7.42232 -9.54144
rclavicle 4.77083e-014 -5.00937e-014
rhumerus -73.6612 1.97248 -93.4756
rradius 89.4332
rwrist -37.4218
rhand -35.787 6.22973
rfingers 7.12502
rthumb -8.90431 -23.5624
lclavicle 4.77083e-014 -5.00937e-014
lhumerus -42.1871 -16.4197 89.7872
lradius 120.693
lwrist 8.56786
lhand -24.9108 0.769527
lfingers 7.12502
lthumb 1.59775 30.7433
rfemur -31.4749 9.43135 10.7256
rtibia 39.3079
rfoot -21.7196 -24.0173
rtoes -32.5847
lfemur 14.0122 -19.5691 -29.6666
ltibia 31.9592
lfoot -7.29017 1.02444
ltoes 5.53583
213
root -26.7397 14.7033 -1.24482 1.89826 30.3602 -3.43875
lowerback 8.98729 1.83632 -1.03708
upperback 6.57147 2.45975 -1.65174
thorax 1.81235 1.26766 -1.29998
lowerneck 0.0818168 10.6513 18.7019
upperneck 1.31234 15.0831 -22.7604
head 3.66151 7.4984 -9.37754
rclavicle 3.22031e-014 -1.66979e-014
rhumerus -73.8118 1.7895 -93.1625
rradius 89.5925
rwrist -37.5082
rhand -36.5117 5.77162
rfingers 7.12502
rthumb -9.60349 -23.9895
lclavicle 3.22031e-014 -1.66979e-014
lhumerus -42.6906 -16.8932 90.1762
lradius 122.723
lwrist 9.51014
lhand -25.5636 -0.034401
lfingers 7.12502
lthumb 0.967187 29.9432
rfemur -29.6849 10.1639 11.4249
rtibia 38.0248
rfoot -21.0513 -24.1392
rtoes -33.4635
lfemur 11.9152 -18.8781 -28.2348
ltibia 38.5372
lfoot -5.45474 1.34945
ltoes 7.19256
214
root -26.6423 14.6647 -0.782709 0.82565 31.9021 -4.81566
lowerback 9.15909 1.76026 -0.176992
upperback 6.67755 2.41841 -1.26595
thorax 1.84554 1.2701 -1.38365
lowerneck 0.159548 10.8724 18.4653
upperneck 0.908322 15.3256 -22.5335
head 3.54355 7.63044 -9.23799
rclavicle 5.725e-014 -2.3059e-014
rhumerus -73.2562 1.8865 -92.7319
rradius 89.7352
rwrist -37.4111
rhand -37.2305 5.08315
rfingers 7.12502
rthumb -10.297 -24.6448
lclavicle 5.725e-014 -2.3059e-014
lhumerus -43.3221 -16.9821 90.532
lradius 123.296
lwrist 10.9673
lhand -25.7914 -0.584725
lfingers 7.12502
lthumb 0.747211 29.3937
rfemur -27.8635 9.51641 13.1697
rtibia 37.8964
rfoot -20.1249 -24.0082
rtoes -35.0418
lfemur 9.07877 -18.0559 -26.3419
ltibia 45.8145
lfoot -4.29909 2.48396
ltoes 8.20154
215
root -26.542 14.6048 -0.332541 -0.414079 33.3906 -6.44642
lowerback 9.40777 1.7178 0.868355
upperback 6.79151 2.43767 -0.803272
thorax 1.85249 1.3086 -1.49861
lowerneck 0.0769299 11.1859 18.3325
upperneck 0.5749 15.6862 -22.3441
head 3.50895 7.81064 -9.10321
rclavicle 1.98785e-014 -4.77083e-015
rhumerus -72.0122 2.22463 -92.1811
rradius 89.8552
rwrist -37.1433
rhand -37.6913 4.23081
rfingers 7.12502
rthumb -10.7415 -25.4746
lclavicle 1.98785e-014 -4.77083e-015
lhumerus -44.0442 -16.6846 90.8465
lradius 122.324
lwrist 12.7099
lhand -25.723 -0.704578
lfingers 7.12502
lthumb 0.813321 29.2736
rfemur -26.0292 7.90381 15.4719
rtibia 38.4953
rfoot -19.3305 -23.8462
rtoes -37.1918
lfemur 5.70401 -17.1398 -24.2966
ltibia 53.3511
lfoot -4.07655 4.27226
ltoes 8.03571
216
root -26.4349 14.5308 0.105438 -1.91823 34.7835 -8.51667
lowerback 9.72792 1.70916 2.29249
upperback 6.89752 2.53672 -0.244763
thorax 1.83221 1.39887 -1.73487
lowerneck -0.119613 11.4578 18.2382
upperneck 0.274491 15.9862 -22.2632
head 3.50313 7.95445 -9.01146
rclavicle -9.42239e-014 1.19271e-014
rhumerus -70.0999 2.73999 -91.4805
rradius 89.8708
rwrist -36.7188
rhand -37.8391 3.39404
rfingers 7.12502
rthumb -10.884 -26.3039
lclavicle -9.42239e-014 1.19271e-014
lhumerus -44.8631 -16.0487 91.1129
lradius 119.828
lwrist 14.5088
lhand -25.3726 -0.337243
lfingers 7.12502
lthumb 1.15173 29.6394
rfemur -24.1936 5.80414 18.1986
rtibia 39.382
rfoot -19.0716 -23.8029
rtoes -39.4322
lfemur 1.88476 -16.169 -21.9761
ltibia 60.7657
lfoot -4.99758 6.18532
ltoes 7.06414
217
root -26.3193 14.4514 0.532203 -3.6074 35.9777 -10.8781
lowerback 10.1271 1.76603 3.97913
upperback 6.97736 2.75805 0.349552
thorax 1.76941 1.55858 -2.09267
lowerneck -0.352585 11.6079 18.1877
upperneck -0.00132682 16.1271 -22.322
head 3.49483 8.01797 -8.99172
rclavicle -7.79236e-014 3.33958e-014
rhumerus -67.6275 3.40348 -90.6659
rradius 89.821
rwrist -36.2053
rhand -38.0581 2.60033
rfingers 7.12502
rthumb -11.0953 -27.0864
lclavicle -7.79236e-014 3.33958e-014
lhumerus -45.8264 -15.1988 91.2962
lradius 116.029
lwrist 16.1235
lhand -25.0022 0.656525
lfingers 7.12502
lthumb 1.50945 30.6309
rfemur -22.4036 3.60882 21.0425
rtibia 40.2728
rfoot -19.4298 -23.8564
rtoes -41.3523
lfemur -2.30275 -15.0779 -19.5347
ltibia 67.6639
lfoot -6.85601 7.61191
ltoes 5.49419
218
root -26.1937 14.3734 0.947509 -5.21336 36.9816 -13.1205
lowerback 10.5696 1.89192 5.61618
upperback 7.02568 3.08773 0.871093
thorax 1.67464 1.77092 -2.50743
lowerneck -0.468742 11.5438 18.1276
upperneck -0.420713 15.9796 -22.5393
head 3.38124 7.95036 -9.07188
rclavicle -9.42239e-014 1.59028e-014
rhumerus -64.6948 4.21868 -89.7567
rradius 89.722
rwrist -35.7194
rhand -38.2422 1.89465
rfingers 7.12502
rthumb -11.2729 -27.7824
lclavicle -9.42239e-014 1.59028e-014
lhumerus -46.918 -14.2277 91.3589
lradius 111.18
lwrist 17.3449
lhand -25.0389 1.85162
lfingers 7.12502
lthumb 1.47397 31.8263
rfemur -20.6717 1.4944 23.5742
rtibia 40.9953
rfoot -20.2169 -23.876
rtoes -42.8662
lfemur -6.81747 -13.9079 -17.4052
ltibia 73.7203
lfoot -9.28281 8.16168
ltoes 3.32134
